<?xml version="1.0" encoding="UTF-8" standalone="no"?>
<!-- Created with Inkscape (http://www.inkscape.org/) -->

<svg
   xmlns:osb="http://www.openswatchbook.org/uri/2009/osb"
   xmlns:dc="http://purl.org/dc/elements/1.1/"
   xmlns:cc="http://creativecommons.org/ns#"
   xmlns:rdf="http://www.w3.org/1999/02/22-rdf-syntax-ns#"
   xmlns:svg="http://www.w3.org/2000/svg"
   xmlns="http://www.w3.org/2000/svg"
   xmlns:sodipodi="http://sodipodi.sourceforge.net/DTD/sodipodi-0.dtd"
   xmlns:inkscape="http://www.inkscape.org/namespaces/inkscape"
   width="1024"
   height="1024"
   viewBox="0 0 270.93333 270.93334"
   version="1.1"
   id="svg6076"
   inkscape:version="0.92.2 5c3e80d, 2017-08-06"
   sodipodi:docname="eye.svg"
   inkscape:export-filename="/Users/thomas/Dev/BLE/XC_USEE/Images/eye.png"
   inkscape:export-xdpi="96"
   inkscape:export-ydpi="96">
  <defs
     id="defs6070">
    <linearGradient
       id="linearGradient6677"
       osb:paint="solid">
      <stop
         style="stop-color:#000000;stop-opacity:1;"
         offset="0"
         id="stop6675" />
    </linearGradient>
  </defs>
  <sodipodi:namedview
     id="base"
     pagecolor="#ffffff"
     bordercolor="#ffffff"
     borderopacity="1"
     inkscape:pageopacity="1"
     inkscape:pageshadow="2"
     inkscape:zoom="0.5"
     inkscape:cx="515.33857"
     inkscape:cy="486.92122"
     inkscape:document-units="px"
     inkscape:current-layer="layer1"
     showgrid="false"
     showborder="true"
     inkscape:snap-intersection-paths="true"
     inkscape:object-nodes="true"
     inkscape:object-paths="true"
     inkscape:snap-nodes="true"
     inkscape:window-width="1296"
     inkscape:window-height="866"
     inkscape:window-x="131"
     inkscape:window-y="19"
     inkscape:window-maximized="0"
     units="px"
     inkscape:pagecheckerboard="false"
     inkscape:showpageshadow="false" />
  <metadata
     id="metadata6073">
    <rdf:RDF>
      <cc:Work
         rdf:about="">
        <dc:format>image/svg+xml</dc:format>
        <dc:type
           rdf:resource="http://purl.org/dc/dcmitype/StillImage" />
        <dc:title></dc:title>
      </cc:Work>
    </rdf:RDF>
  </metadata>
  <g
     inkscape:label="Layer 1"
     inkscape:groupmode="layer"
     id="layer1"
     transform="translate(0,-26.06665)">
    <g
       id="g7755"
       transform="matrix(1.3519377,0,0,1.3519377,-48.411134,-60.858589)">
      <path
         inkscape:connector-curvature="0"
         id="path6623"
         d="m 133.73506,160.64041 a 12.588239,12.588239 0 0 0 -10.31274,12.37453 12.588239,12.588239 0 0 0 12.58824,12.58823 12.588239,12.588239 0 0 0 12.58824,-12.58823 12.588239,12.588239 0 0 0 -10.32345,-12.37295 l -2.28717,8.54315 z"
         style="opacity:0.5;fill:#ff8300;fill-opacity:1;stroke:#ff8300;stroke-width:1.23945749;stroke-linecap:butt;stroke-linejoin:miter;stroke-miterlimit:4;stroke-dasharray:none;stroke-dashoffset:304.24581909;stroke-opacity:1;paint-order:normal" />
      <path
         inkscape:connector-curvature="0"
         d="m 156.23032,172.94414 a 20.219757,20.534658 0 0 1 -20.21976,20.53466 20.219757,20.534658 0 0 1 -20.21975,-20.53466 20.219757,20.534658 0 0 1 20.21975,-20.53466 20.219757,20.534658 0 0 1 20.21976,20.53466 z m 39.36291,-1e-5 c 0,0 -26.67606,26.49224 -59.58267,26.49224 -32.90661,0 -59.582662,-26.49224 -59.582662,-26.49224 0,0 26.676082,-26.49223 59.582662,-26.49223 32.90658,0 59.58267,26.49223 59.58267,26.49223 z m 13.85574,3.40517 c 4.53187,-4.104 7.06687,-6.90256 7.06687,-6.90256 0,0 -36.04312,-39.88584 -80.50499,-39.88584 -44.461862,0 -80.505602,39.88584 -80.505602,39.88584 0,0 2.535,2.79856 7.06687,6.90256"
         style="opacity:0.5;fill:none;fill-opacity:1;fill-rule:nonzero;stroke:#ff8300;stroke-width:9.96095753;stroke-linecap:butt;stroke-linejoin:miter;stroke-miterlimit:0.89999998;stroke-dasharray:none;stroke-dashoffset:304.24581909;stroke-opacity:1;paint-order:normal"
         id="path7106-4" />
    </g>
  </g>
</svg>
